<svg width="114" height="113" viewBox="0 0 114 113" fill="none" xmlns="http://www.w3.org/2000/svg">
<circle cx="57.061" cy="56.5" r="56.5" fill="#F1F2FA"/>
<path d="M98.412 62.5533V63.4228H93.7475V62.5533H94.6804C94.9569 62.5533 95.1642 62.4195 95.1642 62.2189V57.7708C95.1642 57.7708 95.0951 55.6639 93.6784 55.6639C92.1927 55.6639 91.4671 57.5033 91.4671 58.1387V62.152C91.4671 62.4195 91.709 62.5533 92.0199 62.5533H92.8837C92.8837 62.8208 92.8837 63.4228 92.8837 63.4228H88.2538V62.5533H89.1176C89.4286 62.5533 89.6704 62.4864 89.6704 62.2523V55.898C89.4286 55.2291 88.0465 55.4298 88.0465 55.4298V54.5937L91.2598 54.393C91.2943 54.9616 91.3289 55.5635 91.398 56.1321C92.0545 55.0953 93.1256 54.393 94.1622 54.393C95.9243 54.393 96.9609 55.7642 96.9609 57.6036V62.2523C96.9609 62.5867 97.3064 62.5867 97.6173 62.5867L98.412 62.5533ZM73.5692 57.0016C72.6363 55.6973 73.9838 54.8278 75.1586 54.995C76.5407 55.2291 77.3354 56.4665 77.6809 57.6705C77.9228 57.6705 78.1646 57.6705 78.4065 57.6705V54.393H77.7846C77.6464 54.6271 77.4736 54.8278 77.3008 54.995H77.1972C76.7135 54.6606 76.1952 54.393 75.6078 54.2258C74.5367 53.9582 73.3965 54.3261 72.7054 55.1957C72.0835 56.0318 71.9453 57.102 72.2908 58.0384C72.6709 58.7741 73.3619 59.3092 74.1912 59.5099C75.2968 59.9781 76.8517 59.744 77.5081 60.8811C78.0264 61.9513 76.8517 62.9212 75.5041 62.7874C73.9147 62.5533 72.8782 61.1152 72.5672 59.7106H71.8762V63.4563H72.5327C72.7745 63.2222 72.8782 62.8877 73.1892 62.6871C74.2603 63.5566 75.9879 64.0248 77.3008 63.2891C78.5101 62.6536 79.1321 61.3159 78.7866 60.0116C78.5793 58.9748 77.439 58.2725 76.4716 58.0718C75.9188 57.9046 74.1221 57.7039 73.5692 57.0016ZM69.5958 54.393C68.2137 54.393 67.3499 56.2659 66.9698 57.4698L66.8662 57.5702L66.7971 54.5268L63.4801 54.6271V55.4298C63.4801 55.4298 64.2748 55.4632 64.5166 55.4632C64.7585 55.4632 65.3459 55.6973 65.3459 56.1321V62.1854C65.3459 62.453 65.0004 62.6202 64.793 62.6202H63.6528V63.4228H69.1811V62.5867H67.5226C67.2462 62.5867 67.0389 62.3861 67.0044 62.1185V62.0851V60.8477C67.0735 59.6771 67.3153 58.5066 67.6954 57.403C67.7645 57.2023 68.2137 55.898 69.0775 55.4298C69.6649 55.1288 69.5612 55.4298 69.3539 55.7308C69.0775 56.1655 69.1466 56.7341 69.5612 57.102C71.3925 58.3394 72.5672 54.393 69.5958 54.393ZM63.5146 60.8811L62.789 60.5467C62.789 60.5467 61.407 63.4897 58.9883 62.4195C58.1591 62.0516 57.4335 61.4162 57.4335 59.0751H63.4455C63.4455 59.0751 63.6183 54.8947 60.405 54.2592C58.9538 54.0251 57.5026 54.5937 56.6042 55.6973C54.3929 58.4732 55.2567 63.6904 59.9558 63.6904C62.5472 63.6569 63.5146 60.8811 63.5146 60.8811ZM61.5452 57.6705C61.5797 57.9046 61.407 58.1387 61.1651 58.1722C61.1305 58.1722 61.0614 58.1722 61.0269 58.1722H57.5026C57.5371 57.0351 57.9518 54.995 59.5757 54.995C61.3724 54.9616 61.5106 56.6337 61.5452 57.6705ZM52.3544 50.7811V55.6973C51.9397 55.0284 51.2833 54.5268 50.4886 54.3261C48.8301 54.0586 47.4825 54.9281 46.7224 56.1655C45.755 57.8377 45.6513 59.8778 46.4805 61.6169C47.0334 62.5867 48.0699 63.4897 49.2792 63.5901C50.5577 63.6904 51.767 63.0884 52.458 62.0516C52.5271 62.5199 52.5962 63.4228 52.5962 63.4228H55.7059V62.5867C55.2913 62.6202 54.8767 62.5867 54.4966 62.4864C54.2893 62.3861 54.1511 62.152 54.1165 61.9179V49.2092L50.4886 49.4433V50.3463H51.8361C52.0088 50.3463 52.3544 50.6139 52.3544 50.7811ZM49.7975 62.5867C48.6919 62.5867 47.9317 61.1821 47.9317 58.8745C47.9317 56.9013 48.6228 55.2626 50.1776 55.2626C51.9743 55.2626 52.3544 57.102 52.3544 59.2424C52.3544 62.8543 50.1085 62.5867 49.7975 62.5867ZM44.5802 58.0718C44.5802 57.5033 44.7529 54.8612 42.0579 54.4265C40.6758 54.2592 39.6393 55.1288 38.9828 56.1321C38.8791 55.5635 38.8791 54.9616 38.8446 54.393C37.7735 54.4599 35.5967 54.6606 35.5967 54.6606V55.4298C35.5967 55.4298 36.5641 55.3629 36.9097 55.5301C37.117 55.6304 37.2552 55.8311 37.2552 56.0652V62.2523C37.2552 62.6871 35.804 62.5867 35.804 62.5867V63.4228H40.4685V62.5533C40.4685 62.5533 39.0519 62.6871 39.0519 62.2189V57.9046C39.0519 57.1688 40.0539 55.6639 41.0904 55.6639C42.0579 55.6639 42.818 56.4331 42.7835 57.3695C42.7835 57.403 42.7835 57.4364 42.7835 57.4364V62.2189C42.7835 62.6536 41.3323 62.5867 41.3323 62.5867V63.4228H46.0314V62.5867C46.0659 62.5867 44.5802 62.6536 44.5802 62.2523M35.6658 62.5867C35.6658 62.5867 35.4239 62.3192 35.3203 62.2523L35.0784 62.4195C34.8711 62.5199 34.6292 62.5199 34.4219 62.4195C34.1455 62.2189 33.9728 61.9179 34.0073 61.5834V57.1688C34.0419 56.6003 33.9037 56.0318 33.6618 55.4967C32.9362 54.4933 31.6232 54.1924 30.3103 54.3596C28.9973 54.5268 27.6843 55.0953 27.2351 56.3662C27.0969 56.8344 27.2697 57.3361 27.6498 57.6705C27.9953 57.9381 28.479 58.0049 28.8936 57.8377C29.4119 57.5367 29.5501 56.8679 29.2046 56.3662C29.17 56.3328 29.1355 56.2659 29.1009 56.2324C28.9282 56.0318 28.8245 55.898 29.1009 55.6304C29.3774 55.3629 30.5867 54.7943 31.6578 55.4967C32.4179 56.0318 32.2797 57.102 32.2106 57.9381C30.2066 58.3059 25.8531 59.1755 26.786 62.1185C27.0624 62.8543 27.7189 63.3894 28.5136 63.5566C29.9993 63.8576 31.5196 63.2222 32.3834 62.0182C33.109 63.9245 34.4565 63.5232 34.8711 63.3225C35.2166 63.1553 35.4585 62.8877 35.6658 62.5867ZM16.4895 55.4967C17.5261 57.1354 18.9772 57.2357 21.3613 57.8712C22.6052 58.2056 23.6072 58.7073 23.9873 59.4096C24.4019 60.3126 24.2637 61.3493 23.6072 62.0851C22.7779 63.0215 21.3268 63.1553 20.1174 62.8208C18.0098 62.0851 17.0423 60.1119 16.524 58.2056L15.833 58.239V63.6235H16.6623L17.5606 62.4864L18.2516 62.9881C19.7374 64.0583 22.1906 64.2589 23.8145 63.2891C25.6112 62.2857 26.164 60.0116 25.6112 58.0384C25.1275 56.5334 23.5381 55.7977 22.0869 55.3963C20.6357 54.8612 18.7008 54.9616 17.7679 53.5904C17.4569 52.8212 17.5606 51.8847 18.0789 51.1824C18.6663 50.4132 19.6337 50.2125 20.5666 50.3129C22.847 50.6139 23.9182 52.8546 24.4019 54.7275H25.1275V49.5771H24.3328L23.5381 50.6473C23.5381 50.6473 22.1906 49.2427 19.5646 49.4099C17.837 49.5437 16.7659 50.7476 16.2131 52.2192C15.833 53.3228 15.9367 54.4933 16.4895 55.4967ZM32.0033 61.2824C31.6232 62.453 30.1029 63.055 29.2391 62.5533C28.6172 62.1854 28.2717 60.7473 29.3082 59.744C29.9993 59.0751 32.2452 58.8076 32.2452 58.8076C32.3488 59.6437 32.2452 60.4798 32.0033 61.2824ZM83.9348 55.1957C85.6969 55.1957 86.2152 57.3695 86.1807 58.9414C86.1461 60.5132 85.8352 62.9546 83.9694 62.9546C82.4836 62.9546 81.5853 61.3159 81.5853 59.2758C81.5853 57.2357 82.2072 55.1957 83.9348 55.1957ZM79.5467 59.0751C79.5467 62.0851 81.9653 63.7573 84.1076 63.7573C86.1116 63.7573 88.2883 61.6838 88.2883 59.1086C88.2883 56.4665 86.2498 54.3596 83.762 54.3596C81.8962 54.393 79.5467 56.1655 79.5467 59.0751Z" fill="#555760"/>
</svg>
