<svg width="20" height="21" viewBox="0 0 20 21" fill="none" xmlns="http://www.w3.org/2000/svg">
<path d="M10.7038 19.2244C12.4568 17.0307 16.4547 11.7137 16.4547 8.72723C16.4547 5.10516 13.516 2.1665 9.89398 2.1665C6.27191 2.1665 3.33325 5.10516 3.33325 8.72723C3.33325 11.7137 7.3312 17.0307 9.08414 19.2244C9.50444 19.7472 10.2835 19.7472 10.7038 19.2244ZM9.89398 6.54032C10.474 6.54032 11.0302 6.77073 11.4404 7.18085C11.8505 7.59098 12.0809 8.14723 12.0809 8.72723C12.0809 9.30724 11.8505 9.86349 11.4404 10.2736C11.0302 10.6837 10.474 10.9141 9.89398 10.9141C9.31397 10.9141 8.75773 10.6837 8.3476 10.2736C7.93748 9.86349 7.70707 9.30724 7.70707 8.72723C7.70707 8.14723 7.93748 7.59098 8.3476 7.18085C8.75773 6.77073 9.31397 6.54032 9.89398 6.54032Z" fill="#555760"/>
</svg>
