<svg
        width="24"
        height="24"
        viewBox="0 0 24 24"
        fill="none"
        xmlns="http://www.w3.org/2000/svg"
>
    <path
            d="M18.5826 15.5701C19.8327 13.8159 20.3778 11.656 20.1098 9.51878C19.8418 7.38155 18.7803 5.42308 17.1357 4.03176C15.4912 2.64044 13.3837 1.9179 11.2313 2.00743C9.0789 2.09695 7.03875 2.99201 5.51545 4.51509C3.99215 6.03817 3.09697 8.07803 3.00743 10.2301C2.91789 12.3822 3.64053 14.4894 5.03205 16.1337C6.42356 17.778 8.38232 18.8394 10.5198 19.1074C12.6574 19.3753 14.8176 18.8303 16.572 17.5804L20.5903 21.6009C20.8585 21.8599 21.2176 22.0032 21.5905 21.9999C21.9633 21.9967 22.3199 21.8472 22.5835 21.5836C22.8472 21.32 22.9967 20.9634 22.9999 20.5907C23.0032 20.2179 22.8599 19.8588 22.6009 19.5906L18.5826 15.5701ZM11.6437 16.3293C10.5188 16.3293 9.41918 15.9957 8.48387 15.3709C7.54855 14.746 6.81955 13.8578 6.38907 12.8187C5.95859 11.7796 5.84596 10.6362 6.06542 9.53306C6.28487 8.42993 6.82657 7.41664 7.62199 6.62133C8.41741 5.82602 9.43084 5.28441 10.5341 5.06498C11.6374 4.84556 12.781 4.95817 13.8203 5.38859C14.8595 5.81901 15.7478 6.5479 16.3728 7.48309C16.9977 8.41827 17.3313 9.51775 17.3313 10.6425C17.3291 12.15 16.7291 13.5952 15.663 14.6612C14.5968 15.7271 13.1515 16.327 11.6437 16.3293Z"
            fill="#555760"
    />
</svg>