<svg width="20" height="20" viewBox="0 0 20 20" fill="none" xmlns="http://www.w3.org/2000/svg">
<path fill-rule="evenodd" clip-rule="evenodd" d="M13.8967 2.19004C11.2749 1.60397 8.55601 1.60397 5.93419 2.19004L5.65169 2.25254C4.91421 2.41742 4.23687 2.78352 3.69492 3.31018C3.15296 3.83683 2.76762 4.50341 2.58169 5.23587C1.91711 7.85464 1.91711 10.5979 2.58169 13.2167C2.759 13.9153 3.11786 14.5545 3.62189 15.0697C4.12591 15.5848 4.75718 15.9575 5.45169 16.15L5.83919 18.4634C5.85156 18.5368 5.8834 18.6056 5.93139 18.6626C5.97937 18.7196 6.04176 18.7626 6.11205 18.7873C6.18233 18.812 6.25795 18.8174 6.33102 18.8029C6.40409 18.7884 6.47195 18.7546 6.52752 18.705L8.80336 16.6692C10.5118 16.7735 12.2263 16.6368 13.8967 16.2634L14.18 16.2009C14.9175 16.036 15.5948 15.6699 16.1368 15.1432C16.6788 14.6166 17.0641 13.95 17.25 13.2175C17.9145 10.5988 17.9145 7.85548 17.25 5.2367C17.064 4.50414 16.6786 3.83748 16.1365 3.31082C15.5943 2.78416 14.9168 2.41812 14.1792 2.25337L13.8967 2.19004ZM6.63752 5.16837C6.48265 5.14583 6.32472 5.177 6.19002 5.2567H6.17836C5.86586 5.44004 5.58419 5.67087 5.34419 5.94254C5.14419 6.17337 5.03586 6.4067 5.00752 6.6317C4.99086 6.76504 5.00252 6.90004 5.04169 7.02754L5.05669 7.03587C5.28169 7.6967 5.57502 8.33254 5.93336 8.93087C6.3954 9.77128 6.96399 10.5485 7.62502 11.2434L7.64502 11.2717L7.67669 11.295L7.69586 11.3175L7.71919 11.3375C8.41646 12.0006 9.19554 12.5719 10.0375 13.0375C11 13.5617 11.5842 13.8092 11.935 13.9125V13.9175C12.0375 13.9492 12.1309 13.9634 12.225 13.9634C12.5238 13.9413 12.8066 13.8198 13.0284 13.6184C13.2992 13.3784 13.5284 13.0959 13.7067 12.7817V12.7759C13.8742 12.4592 13.8175 12.1609 13.5759 11.9584C13.0904 11.5342 12.5655 11.1575 12.0084 10.8334C11.635 10.6309 11.2559 10.7534 11.1025 10.9584L10.775 11.3717C10.6067 11.5767 10.3017 11.5484 10.3017 11.5484L10.2934 11.5534C8.01752 10.9725 7.41002 8.66837 7.41002 8.66837C7.41002 8.66837 7.38169 8.35504 7.59252 8.19504L8.00252 7.86504C8.19919 7.70504 8.33586 7.3267 8.12502 6.95337C7.80303 6.39567 7.42706 5.87093 7.00252 5.3867C6.90993 5.27274 6.78008 5.19513 6.63586 5.16754L6.63752 5.16837ZM10.4825 4.1667C10.372 4.1667 10.266 4.2106 10.1879 4.28874C10.1098 4.36688 10.0659 4.47286 10.0659 4.58337C10.0659 4.69388 10.1098 4.79986 10.1879 4.878C10.266 4.95614 10.372 5.00004 10.4825 5.00004C11.5367 5.00004 12.4117 5.3442 13.1042 6.0042C13.46 6.36504 13.7375 6.79254 13.9192 7.26087C14.1017 7.73004 14.185 8.23087 14.1634 8.73254C14.1611 8.78726 14.1696 8.84189 14.1884 8.89332C14.2072 8.94475 14.236 8.99197 14.273 9.03229C14.3479 9.11371 14.452 9.16206 14.5625 9.1667C14.673 9.17135 14.7809 9.1319 14.8623 9.05704C14.9437 8.98218 14.992 8.87804 14.9967 8.76754C15.0225 8.15044 14.9201 7.53469 14.6959 6.9592C14.4706 6.38098 14.1291 5.85514 13.6925 5.4142L13.6842 5.40587C12.825 4.58504 11.7375 4.1667 10.4825 4.1667ZM10.4542 5.5367C10.3437 5.5367 10.2377 5.5806 10.1596 5.65874C10.0814 5.73688 10.0375 5.84286 10.0375 5.95337C10.0375 6.06388 10.0814 6.16986 10.1596 6.248C10.2377 6.32614 10.3437 6.37004 10.4542 6.37004H10.4684C11.2284 6.4242 11.7817 6.67754 12.1692 7.09337C12.5667 7.5217 12.7725 8.0542 12.7567 8.71254C12.7541 8.82304 12.7956 8.93004 12.872 9.00997C12.9483 9.08991 13.0533 9.13625 13.1638 9.13879C13.2743 9.14133 13.3813 9.09987 13.4612 9.02353C13.5411 8.94718 13.5875 8.84221 13.59 8.7317C13.61 7.86754 13.3317 7.1217 12.78 6.5267V6.52504C12.2159 5.92004 11.4417 5.60004 10.51 5.53754L10.4959 5.53587L10.4542 5.5367ZM10.4384 6.93254C10.3826 6.92762 10.3264 6.93398 10.2732 6.95126C10.2199 6.96853 10.1707 6.99635 10.1284 7.03307C10.0862 7.06979 10.0518 7.11464 10.0272 7.16495C10.0027 7.21527 9.98854 7.27001 9.98563 7.32591C9.98272 7.38181 9.9911 7.43773 10.0103 7.49032C10.0295 7.54291 10.059 7.5911 10.0972 7.63201C10.1354 7.67292 10.1815 7.70571 10.2327 7.72842C10.2838 7.75113 10.3391 7.7633 10.395 7.7642C10.7434 7.78254 10.9659 7.88754 11.1059 8.02837C11.2467 8.17004 11.3517 8.39754 11.3709 8.75337C11.3719 8.80929 11.3842 8.86442 11.407 8.91549C11.4298 8.96656 11.4626 9.01251 11.5036 9.05062C11.5445 9.08872 11.5927 9.11819 11.6453 9.13728C11.6978 9.15636 11.7537 9.16467 11.8095 9.1617C11.8654 9.15874 11.9201 9.14456 11.9703 9.12001C12.0206 9.09547 12.0654 9.06106 12.102 9.01883C12.1387 8.97661 12.1665 8.92743 12.1838 8.87424C12.201 8.82104 12.2074 8.76492 12.2025 8.7092C12.1759 8.2092 12.0192 7.76754 11.6984 7.44254C11.3759 7.11754 10.9367 6.9592 10.4384 6.93254Z" fill="#555760"/>
</svg>
