<svg width="20" height="20" viewBox="0 0 20 20" fill="none" xmlns="http://www.w3.org/2000/svg">
<path d="M15.8344 4.08946C15.0703 3.3183 14.1604 2.70691 13.1577 2.29093C12.1549 1.87496 11.0794 1.66271 9.99381 1.66656C5.44486 1.66656 1.73758 5.37279 1.73341 9.92278C1.73341 11.3801 2.11466 12.7978 2.83445 14.053L1.66675 18.3332L6.0459 17.1853C7.25736 17.8445 8.61457 18.1901 9.99381 18.1905H9.99797C14.548 18.1905 18.2542 14.4842 18.2584 9.93007C18.2594 8.8447 18.0457 7.76986 17.6295 6.76746C17.2133 5.76505 16.6039 4.85491 15.8344 4.08946ZM9.99381 16.7926C8.7636 16.793 7.556 16.4619 6.49798 15.8342L6.24798 15.6842L3.65008 16.3655L4.34382 13.8311L4.18132 13.5696C3.49363 12.4762 3.12992 11.2103 3.13237 9.91861C3.13237 6.14154 6.21257 3.0603 9.99797 3.0603C10.8998 3.05868 11.793 3.23559 12.6261 3.58081C13.4592 3.92604 14.2158 4.43275 14.8521 5.07175C15.4907 5.70826 15.9969 6.4649 16.3416 7.29803C16.6863 8.13116 16.8627 9.02429 16.8605 9.92591C16.8563 13.7165 13.7761 16.7926 9.99381 16.7926ZM13.7594 11.653C13.5542 11.5499 12.5407 11.0509 12.35 10.9801C12.1605 10.9124 12.0219 10.8769 11.8865 11.0832C11.748 11.2884 11.3521 11.7561 11.2334 11.8905C11.1146 12.029 10.9917 12.0446 10.7855 11.9426C10.5803 11.8384 9.91464 11.6217 9.12714 10.9165C8.51256 10.3697 8.1011 9.69257 7.97819 9.48736C7.85944 9.28112 7.96673 9.1707 8.06985 9.06757C8.16048 8.97591 8.27506 8.82591 8.37819 8.70716C8.48235 8.58841 8.51673 8.50091 8.58444 8.36341C8.65214 8.22383 8.61985 8.10508 8.56881 8.00195C8.51673 7.89883 8.10527 6.88112 7.93131 6.47071C7.76465 6.0655 7.59486 6.12175 7.46777 6.11654C7.34902 6.10925 7.21048 6.10925 7.07194 6.10925C6.96732 6.11185 6.86437 6.13605 6.76954 6.18032C6.67471 6.2246 6.59006 6.288 6.5209 6.36654C6.33132 6.57279 5.80111 7.07175 5.80111 8.08945C5.80111 9.10716 6.54069 10.0853 6.64486 10.2238C6.74694 10.3624 8.09694 12.4446 10.1688 13.3405C10.6584 13.554 11.0438 13.6801 11.3448 13.7759C11.8396 13.9342 12.2865 13.9103 12.6428 13.8592C13.0386 13.7988 13.8625 13.3592 14.0365 12.8769C14.2073 12.3936 14.2073 11.9811 14.1553 11.8947C14.1042 11.8071 13.9657 11.7561 13.7594 11.653Z" fill="#555760"/>
</svg>
