<svg width="125" height="60" viewBox="0 0 125 60" fill="none" xmlns="http://www.w3.org/2000/svg">
<g clip-path="url(#clip0_149_3807)">
<path d="M19.4947 38.1924C8.74927 38.1924 7.5929 25.887 7.5929 20.5961C7.5929 15.3052 8.74927 2.99971 19.4947 2.99971C30.2402 2.99971 31.3638 15.3052 31.3638 20.5961C31.3638 25.887 30.2729 38.1924 19.4947 38.1924ZM38.1711 20.5961C38.1711 9.16335 30.142 0.545166 19.4947 0.545166C8.84745 0.545166 0.818359 9.16335 0.818359 20.5961C0.818359 32.0288 8.84745 40.647 19.4947 40.647C30.142 40.647 38.1711 32.0288 38.1711 20.5961Z" fill="#555760"/>
<path d="M73.9099 28.8215L78.2735 18.5669L82.6371 28.8215H73.9099ZM48.2735 25.4287H47.5753V14.5196H47.9026C48.8322 14.3536 49.7731 14.2588 50.7171 14.236C51.4395 14.2177 52.1577 14.3503 52.8259 14.6254C53.494 14.9004 54.0974 15.3119 54.5975 15.8335C55.0975 16.3552 55.4832 16.9754 55.7298 17.6546C55.9765 18.3337 56.0787 19.0569 56.0299 19.7778C56.0299 24.9706 50.5753 25.5378 48.2735 25.5378M89.3026 34.4069L79.9317 11.6396H78.939L69.1971 34.636C68.1062 37.2869 67.3535 38.5415 65.8153 38.5633C63.0117 38.5633 61.4517 36.2942 59.5426 33.6978L54.4262 26.5196C58.539 25.5706 60.9717 22.9633 60.9717 19.5051C60.9717 18.2942 60.5026 12.2615 51.4044 12.2615H39.5244V13.3524H39.7208C43.3535 13.3524 43.3535 14.1706 43.3535 17.6287V34.3633C43.3535 37.8215 43.3535 38.6396 39.7208 38.6396H39.5244V39.7306H51.4044V38.6396H51.208C47.5753 38.6396 47.5753 37.8215 47.5753 34.3633V27.1196H50.0517L59.2262 39.8178H73.8444V38.7269H73.659C71.9899 38.596 70.7026 38.3887 70.7026 37.1233C70.8159 36.1548 71.116 35.2175 71.5862 34.3633L73.168 30.676H83.3462L84.7535 33.9487L84.939 34.3851C85.3389 35.2065 85.6041 36.0868 85.7244 36.9924C85.7244 38.0833 85.0699 38.5524 83.128 38.6396H82.9535V39.7306H93.9717V38.7269H93.7862C91.048 38.6178 90.2408 36.6433 89.3026 34.3633" fill="#555760"/>
<path d="M115.299 32.7162C112.899 36.2289 110.684 38.258 106.452 38.258C104.139 38.258 96.6334 37.4071 96.6334 26.5198C96.6334 18.3489 100.081 13.4289 105.852 13.4289C110.346 13.4289 113.335 16.0035 114.721 21.0653V21.2071H115.681L115.048 11.5962H113.957V11.7598C113.837 12.4035 113.401 13.4835 112.561 13.4835C112.202 13.4456 111.856 13.3302 111.546 13.1453L111.459 13.0907C109.66 12.1398 107.657 11.6418 105.623 11.6398C97.637 11.6398 91.6152 18.0326 91.6152 26.5089C91.6152 34.538 97.2007 40.3635 104.892 40.3635C110.084 40.3635 113.619 38.1816 116.226 33.2944L116.313 33.1307L115.397 32.5198L115.299 32.7162Z" fill="#555760"/>
<path d="M120.906 9.86153C120.513 9.87708 120.121 9.8108 119.756 9.6669C119.39 9.52299 119.058 9.3046 118.781 9.02558C118.504 8.74657 118.288 8.41302 118.147 8.04612C118.006 7.67921 117.942 7.28696 117.961 6.89426C117.936 6.49165 117.994 6.08828 118.132 5.70899C118.269 5.32969 118.482 4.98249 118.759 4.68875C119.035 4.395 119.369 4.16093 119.739 4.00093C120.109 3.84093 120.508 3.75839 120.912 3.75839C121.315 3.75839 121.714 3.84093 122.084 4.00093C122.455 4.16093 122.788 4.395 123.065 4.68875C123.341 4.98249 123.554 5.32969 123.692 5.70899C123.829 6.08828 123.887 6.49165 123.862 6.89426C123.878 7.28708 123.812 7.67883 123.669 8.04501C123.526 8.41119 123.309 8.74393 123.031 9.02242C122.754 9.30091 122.422 9.51917 122.056 9.66355C121.69 9.80793 121.299 9.87533 120.906 9.86153ZM120.906 3.31607C120.432 3.29955 119.959 3.38027 119.517 3.55326C119.075 3.72626 118.673 3.98788 118.335 4.32202C117.998 4.65617 117.733 5.05577 117.556 5.49625C117.379 5.93674 117.294 6.40878 117.306 6.88335C117.357 7.80528 117.759 8.67275 118.429 9.30745C119.1 9.94215 119.988 10.2959 120.912 10.2959C121.835 10.2959 122.723 9.94215 123.394 9.30745C124.064 8.67275 124.466 7.80528 124.517 6.88335C124.528 6.40825 124.441 5.93598 124.263 5.49546C124.085 5.05495 123.818 4.65546 123.48 4.32148C123.142 3.98751 122.74 3.72607 122.297 3.55319C121.854 3.3803 121.381 3.29962 120.906 3.31607Z" fill="#555760"/>
<path d="M120.371 6.89431V5.55249C120.371 5.55249 121.952 5.3234 121.952 6.22885C121.952 7.13431 120.371 6.89431 120.371 6.89431ZM122.792 6.11976C122.792 4.95249 121.429 5.02885 121.429 5.02885H119.476V8.96704H120.338V7.40704H121.036L121.778 8.96704H122.792L121.822 7.25431C121.959 7.25197 122.094 7.2212 122.219 7.16396C122.343 7.10671 122.455 7.02423 122.546 6.92172C122.637 6.81921 122.706 6.69889 122.749 6.56837C122.791 6.43785 122.806 6.29996 122.792 6.1634" fill="#555760"/>
<path d="M110.858 52.6689H108.229V48.818H110.858C112.581 48.818 113.454 49.1343 113.454 50.6616C113.454 52.1889 112.625 52.6689 110.858 52.6689ZM114.905 57.1852L114.785 55.3198C114.698 54.1089 114.48 53.498 113.487 53.2143C113.98 52.9946 114.394 52.629 114.673 52.1667C114.952 51.7044 115.083 51.1676 115.047 50.6289C115.084 50.0814 114.966 49.5347 114.708 49.0507C114.449 48.5667 114.06 48.1648 113.585 47.8907C112.808 47.5441 111.958 47.3943 111.109 47.4543H106.745V58.8216H108.272V53.9998H110.76C112.712 53.9998 113.16 54.1307 113.28 55.8107L113.367 57.2943C113.352 57.8306 113.456 58.3635 113.672 58.8543H115.451V58.538C115.091 58.3525 114.971 57.9271 114.927 57.218" fill="#555760"/>
<path d="M85.0369 57.7962C82.7024 57.7962 81.2515 56.1162 81.2515 53.1707C81.2515 50.2253 82.7024 48.5453 85.0369 48.5453C87.3715 48.5453 88.8006 50.2362 88.8006 53.1816C88.8006 56.1271 87.3606 57.8071 85.0369 57.8071M85.0369 47.2144C81.7642 47.2144 79.6697 49.3962 79.6697 53.1816C79.6697 56.9671 81.7097 59.1489 85.0369 59.1489C88.3642 59.1489 90.3933 56.9671 90.3933 53.1816C90.3933 49.3962 88.3533 47.2144 85.0369 47.2144Z" fill="#555760"/>
<path d="M59.2255 57.7635C57.0437 57.7635 55.6255 55.9853 55.6255 53.1816C55.6255 50.378 56.9564 48.5453 59.2364 48.5453C59.9563 48.4622 60.6806 48.6578 61.2608 49.092C61.841 49.5261 62.233 50.1658 62.3564 50.8798H63.8728C63.6219 48.6107 61.8873 47.1816 59.3019 47.1816C56.0292 47.1816 54.0437 49.4289 54.0437 52.9744C54.0437 56.858 55.9964 59.1162 59.1492 59.1162C59.7657 59.155 60.3836 59.0669 60.9647 58.8574C61.5458 58.6478 62.0778 58.3213 62.5277 57.898C62.9776 57.4747 63.3359 56.9636 63.5804 56.3963C63.8249 55.829 63.9504 55.2176 63.9492 54.5998H62.4546C62.4613 55.0255 62.3802 55.4479 62.2163 55.8408C62.0525 56.2337 61.8095 56.5886 61.5024 56.8834C61.1953 57.1782 60.8308 57.4065 60.4315 57.5542C60.0323 57.7019 59.6069 57.7657 59.1819 57.7416" fill="#555760"/>
<path d="M31.6042 53.6069H37.6478V52.2869H31.6042V48.9051H38.1605V47.4978H30.0769V58.8214H38.2805V57.4033H31.6042V53.6069Z" fill="#555760"/>
<path d="M8.73834 57.4362H6.09834V48.8071H8.73834C10.9202 48.8071 12.1747 50.3016 12.1747 53.0725C12.1747 55.8434 10.9965 57.4362 8.73834 57.4362ZM8.86925 47.4543H4.50562V58.8216H8.76016C11.8474 58.8216 13.702 56.7053 13.702 52.9962C13.702 49.2871 11.9893 47.5416 8.82561 47.5416" fill="#555760"/>
</g>
<defs>
<clipPath id="clip0_149_3807">
<rect width="123.698" height="58.5927" fill="white" transform="translate(0.818359 0.545166)"/>
</clipPath>
</defs>
</svg>
