<svg width="200" height="182" viewBox="0 0 200 182" fill="none" xmlns="http://www.w3.org/2000/svg">
<g opacity="0.8">
<ellipse cx="72.9007" cy="72.4655" rx="72.9007" ry="72.4655" transform="matrix(-1 0 0 1 174.195 8.55078)" fill="url(#paint0_linear_1113_1143)"/>
<path fill-rule="evenodd" clip-rule="evenodd" d="M149.243 134.144C122.828 160.402 79.0761 159.522 50.6971 131.313C22.318 103.103 21.4335 59.6128 47.8489 33.3551C51.9673 29.2613 78.0037 48.5049 106.003 76.337C134.002 104.169 153.361 130.05 149.243 134.144ZM120.039 148.989C97.1768 155.311 70.9937 149.017 51.9399 130.077C32.8861 111.137 26.5543 85.1104 32.9142 62.3846C29.2295 83.5332 36.9975 107.812 55.6684 126.371C74.3393 144.93 98.7634 152.652 120.039 148.989ZM56.9112 125.136C76.441 144.549 102.276 151.743 123.856 146.297C103.738 149.045 79.6667 140.343 60.6397 121.429C41.6126 102.516 32.8579 78.5882 35.623 58.5902C30.144 80.0415 37.3814 105.722 56.9112 125.136ZM127.617 143.74C107.433 148.303 81.9548 140.146 61.8825 120.194C41.8102 100.242 33.6042 74.9158 38.1948 54.8518C37.6886 60.0327 38.069 65.5772 39.2909 71.2872C42.4953 86.2612 51.4941 102.455 65.611 116.488C79.7279 130.52 96.0191 139.465 111.083 142.651C116.827 143.865 122.405 144.243 127.617 143.74ZM111.34 140.879C118.418 142.376 125.171 142.555 131.238 141.369C126.08 141.616 120.426 140.844 114.53 139.139C100.388 135.05 84.6781 125.558 70.5823 111.546C56.4865 97.5344 46.9373 81.9187 42.8233 67.8605C41.1083 62 40.3317 56.3799 40.5806 51.2528C39.3873 57.2834 39.5677 63.9959 41.0734 71.0318C44.189 85.5908 52.9715 101.453 66.8538 115.252C80.7361 129.052 96.6935 137.782 111.34 140.879ZM134.609 139.198C128.82 140.104 122.122 139.483 114.923 137.402C101.155 133.42 85.7285 124.131 71.8251 110.311C57.9218 96.4904 48.5767 81.1562 44.5715 67.4699C42.4775 60.3144 41.8526 53.6563 42.7641 47.902C42.839 52.8752 44.0916 58.4948 46.3631 64.4392C51.3828 77.5754 61.4777 92.6126 75.5536 106.604C89.6295 120.596 104.757 130.631 117.972 135.621C123.952 137.879 129.606 139.124 134.609 139.198ZM118.512 133.932C125.816 136.69 132.38 137.818 137.758 137.245C133.052 136.789 127.485 135.004 121.41 132.093C109.127 126.209 94.5821 115.636 80.5249 101.663C66.4677 87.6896 55.8314 73.2311 49.9117 61.0221C46.9839 54.9834 45.1877 49.4497 44.7291 44.7716C44.1523 50.117 45.2876 56.6418 48.0622 63.9027C52.961 76.7225 62.8731 91.5289 76.7964 105.369C90.7197 119.209 105.615 129.062 118.512 133.932ZM140.663 135.535C139.807 135.568 138.899 135.541 137.943 135.454C133.51 135.049 128.123 133.354 122.105 130.471C110.074 124.707 95.7097 114.286 81.7677 100.427C67.8258 86.5687 57.3422 72.2897 51.5441 60.3313C48.6434 54.3489 46.9381 48.9936 46.5309 44.5879C46.443 43.6369 46.4158 42.7351 46.449 41.884C46.5165 42.2009 46.5921 42.5223 46.6755 42.8478C47.7246 46.943 50.0678 51.9743 53.4702 57.6074C60.2824 68.8858 71.4565 82.7653 85.4962 96.7212C99.5359 110.677 113.499 121.785 124.845 128.556C130.512 131.938 135.573 134.267 139.693 135.31C140.021 135.393 140.344 135.468 140.663 135.535ZM140.024 133.555C141.904 134.031 143.479 134.197 144.762 134.088C135.315 130.738 113.851 113.788 91.0889 91.1619C68.3272 68.5359 51.2753 47.1994 47.9051 37.8095C47.7953 39.0847 47.9621 40.6506 48.4408 42.5193C49.4236 46.356 51.66 51.2011 55.0161 56.7574C61.7209 67.858 72.7796 81.6096 86.7391 95.4858C100.699 109.362 114.533 120.355 125.7 127.019C131.29 130.355 136.164 132.578 140.024 133.555ZM50.2128 34.6733C49.4974 34.5569 49.2419 34.6543 49.1852 34.6834C49.156 34.7398 49.058 34.9937 49.175 35.7048C49.322 36.598 49.76 37.8611 50.5613 39.507C52.1542 42.7787 54.9766 47.1507 58.8606 52.3432C66.6106 62.704 78.3796 76.0576 92.3318 89.9265C106.284 103.795 119.718 115.494 130.141 123.198C135.364 127.059 139.763 129.864 143.054 131.448C144.71 132.244 145.98 132.679 146.879 132.826C147.594 132.942 147.85 132.844 147.907 132.815C147.936 132.759 148.034 132.505 147.917 131.794C147.77 130.901 147.332 129.638 146.531 127.992C144.938 124.72 142.115 120.348 138.231 115.156C130.481 104.795 118.712 91.4413 104.76 77.5724C90.8079 63.7035 77.3742 52.0047 66.9511 44.301C61.7274 40.4402 57.3292 37.6346 54.0378 36.0512C52.382 35.2547 51.1113 34.8194 50.2128 34.6733Z" fill="url(#paint1_linear_1113_1143)"/>
<ellipse cx="30.8248" cy="30.6408" rx="30.8248" ry="30.6408" transform="matrix(-1 0 0 1 200 0)" fill="url(#paint2_linear_1113_1143)"/>
</g>
<defs>
<linearGradient id="paint0_linear_1113_1143" x1="48.6005" y1="36.2328" x2="142.102" y2="148.502" gradientUnits="userSpaceOnUse">
<stop stop-color="#FAFBFF"/>
<stop offset="1" stop-color="#D3D8FF"/>
</linearGradient>
<linearGradient id="paint1_linear_1113_1143" x1="44.7512" y1="131.039" x2="108.445" y2="73.5588" gradientUnits="userSpaceOnUse">
<stop stop-color="white"/>
<stop offset="1" stop-color="white" stop-opacity="0"/>
</linearGradient>
<linearGradient id="paint2_linear_1113_1143" x1="20.5499" y1="15.3204" x2="60.0854" y2="62.7913" gradientUnits="userSpaceOnUse">
<stop stop-color="#FAFBFF"/>
<stop offset="1" stop-color="#D3D8FF"/>
</linearGradient>
</defs>
</svg>
