<svg width="40" height="40" viewBox="0 0 40 40" fill="none" xmlns="http://www.w3.org/2000/svg">
<path d="M32.1666 10.4999C33.8333 12.3333 34.8333 14.3333 34.8333 17.6666C34.8333 23.4999 30.6666 28.6666 24.8333 31.3333L23.3333 29.1666C28.8333 26.1666 29.9999 22.3333 30.3333 19.8333C29.4999 20.3333 28.3333 20.4999 27.1666 20.3333C24.1666 19.9999 21.8333 17.6666 21.8333 14.4999C21.8333 12.9999 22.4999 11.4999 23.4999 10.3333C24.6666 9.16659 25.9999 8.66659 27.6666 8.66659C29.4999 8.66659 31.1666 9.49992 32.1666 10.4999ZM15.4999 10.4999C17.1666 12.3333 18.1666 14.3333 18.1666 17.6666C18.1666 23.4999 13.9999 28.6666 8.16658 31.3333L6.66658 29.1666C12.1666 26.1666 13.3333 22.3333 13.6666 19.8333C12.8333 20.3333 11.6666 20.4999 10.4999 20.3333C7.49992 19.9999 5.16659 17.6666 5.16659 14.4999C5.16659 12.9999 5.83325 11.4999 6.83325 10.3333C7.83325 9.16659 9.33325 8.66659 10.9999 8.66659C12.8333 8.66659 14.4999 9.49992 15.4999 10.4999Z" fill="#586CBE"/>
</svg>
