<svg width="138" height="22" viewBox="0 0 138 22" fill="none" xmlns="http://www.w3.org/2000/svg">
<path fill-rule="evenodd" clip-rule="evenodd" d="M89.9452 2.38644C90.4995 1.60339 91.5343 0.783051 92.2364 0.522034C92.9386 0.261017 94.3429 0.0372881 95.3776 0C96.5232 0 97.5949 0.223729 98.1493 0.59661C98.6667 0.969492 99.5166 1.67797 100.108 2.2C100.662 2.72203 101.106 3.35593 101.143 3.54237C101.143 3.72881 100.662 4.13898 100.108 4.4C99.221 4.81017 99.0362 4.81017 98.8145 4.32542C98.6297 3.98983 98.0015 3.4678 97.4102 3.16949C96.8189 2.87119 95.7472 2.61017 95.1189 2.61017C94.4537 2.61017 93.3451 2.94576 92.7169 3.35593C91.8669 3.87797 91.3865 4.54915 91.1278 5.48136C90.943 6.26441 90.7582 8.72542 90.7582 11C90.7582 13.2373 90.943 15.7356 91.1278 16.4814C91.3495 17.3763 91.9038 18.1593 92.606 18.6441C93.3081 19.1288 94.3429 19.3898 95.4146 19.3898C96.7819 19.3898 97.2993 19.2034 98.1862 18.2712C99.1471 17.2644 99.3318 17.1898 100.182 17.6C100.699 17.861 101.143 18.2712 101.106 18.4576C101.106 18.6441 100.588 19.3525 99.9231 20.0237C99.2579 20.6576 98.2601 21.4034 97.7058 21.5898C97.1145 21.8136 96.0059 22 95.1929 22C94.3798 22 93.3081 21.8136 92.7908 21.6271C92.2734 21.4407 91.2756 20.6949 90.5734 20.0237C89.8343 19.3525 89.0213 18.0847 88.7257 17.1525C88.3561 16.0339 88.1713 13.9831 88.1713 11C88.1713 8.53898 88.3561 5.89153 88.5409 5.10847C88.7626 4.36271 89.3909 3.1322 89.9452 2.38644ZM20.8019 1.45424C21.5779 0.894915 22.4649 0.372881 22.7605 0.261017C23.0561 0.149153 24.017 0.0372881 24.9039 0.0372881C25.7539 0 27.0104 0.223729 27.6755 0.484746C28.3038 0.783051 29.4124 1.60339 30.0776 2.34915C30.7059 3.1322 31.445 4.43729 31.6667 5.29492C31.8884 6.26441 31.9993 8.94915 31.9254 11.9322C31.8145 15.5492 31.5928 17.2644 31.1863 18.0847C30.8537 18.7186 30.0037 19.7627 29.2646 20.3966C28.4886 21.1051 27.343 21.739 26.5669 21.8508C25.7908 22 24.4974 22 23.6844 21.8508C22.8714 21.739 21.6518 21.2542 20.9866 20.8068C20.3214 20.322 19.3606 19.0915 18.8802 18.0847C18.0302 16.3695 17.9563 15.8102 17.9563 11.0746C17.9563 6.86102 18.0672 5.6678 18.6954 4.17627C19.1389 3.05763 19.9149 2.08814 20.8019 1.45424ZM108.682 0.59661C108.09 0.894915 107.203 1.52881 106.723 1.97627C106.242 2.42373 105.577 3.39322 105.245 4.1017C104.727 5.14576 104.616 6.52542 104.616 11C104.653 15.2881 104.801 16.8915 105.245 17.8983C105.577 18.6068 106.427 19.7627 107.166 20.3966C108.127 21.2915 108.977 21.7017 110.234 21.8508C111.231 22 112.525 21.9627 113.116 21.8508C113.707 21.7017 114.742 21.2542 115.333 20.8441C115.925 20.4339 116.849 19.4644 117.366 18.7559C118.216 17.4881 118.29 17.0407 118.401 11.9695C118.512 8.24068 118.364 6.00339 118.068 4.84746C117.773 3.91525 117.07 2.72203 116.442 2.12542C115.851 1.5661 114.779 0.857627 114.114 0.559322C113.486 0.261017 112.229 0 111.342 0C110.492 0 109.273 0.261017 108.682 0.59661ZM121.357 1.75254C121.32 1.04407 121.394 0.410169 121.505 0.335593C121.653 0.261017 124.277 0.261017 127.418 0.372881C130.707 0.484746 133.368 0.745763 133.811 1.00678C134.218 1.23051 135.068 1.97627 135.659 2.61017C136.583 3.57966 136.805 4.13898 136.878 5.89153C136.952 7.5322 136.805 8.27797 136.25 9.21017C135.807 9.88136 134.883 10.7763 134.181 11.1864C133.479 11.5966 132.887 12.1186 132.887 12.3051C132.887 12.4915 133.885 14.6915 137.322 21.6271L134.55 21.5898L130.116 12.2678L126.531 12.4915L126.605 21.6271L123.833 21.4407V9.88136L128.305 9.69491C132.148 9.54576 132.924 9.39661 133.589 8.76271C134.181 8.20339 134.402 7.56949 134.365 6.22712C134.365 4.73559 134.218 4.36271 133.368 3.72881C132.444 3.02034 131.779 2.94576 121.431 2.98305L121.357 1.75254ZM0.956877 1.49153C0.956877 2.16271 1.17861 2.68475 1.51121 2.79661C1.80685 2.90847 4.65241 2.98305 7.7936 2.98305C10.9348 2.98305 13.7804 2.90847 14.076 2.79661C14.4086 2.68475 14.6303 2.16271 14.6303 1.49153V0.372881H0.956877V1.49153ZM34.5862 2.98305V1.67797V0.372881H40.2034C45.488 0.335593 45.9315 0.41017 47.151 1.19322C47.8531 1.67797 48.814 2.64746 49.2574 3.35593C49.8118 4.13898 50.1074 5.22034 50.1074 6.04068C50.1074 6.82373 49.9226 7.90509 49.6639 8.46441C49.4053 9.06102 48.7401 9.95593 48.1857 10.5153C47.6314 11.1119 46.7445 11.7458 46.2271 11.9322C45.7097 12.1186 44.0467 12.3051 39.7599 12.3051V21.6271H37.1731L37.3578 9.88136L41.7186 9.69491C45.8575 9.50847 46.1532 9.47119 46.8184 8.57627C47.2618 8.01695 47.5575 7.08475 47.5205 6.22712C47.5205 5.25763 47.2618 4.58644 46.5967 3.91525C45.7097 3.02034 45.5619 2.98305 34.5862 2.98305ZM52.3247 1.67797C52.3247 2.90847 52.3986 2.98305 53.5073 2.87119L54.7268 2.79661V19.2034C52.3986 19.0169 52.3247 19.0915 52.3247 20.322V21.6271C59.7527 21.6271 62.3766 21.4407 62.9309 21.2169C63.5222 20.9932 64.3721 20.4712 64.8156 20.0237C65.296 19.5763 66.0351 18.5695 66.4047 17.7864C66.996 16.6305 67.1068 15.5864 67.1068 10.8881C67.1068 6.41356 66.996 5.18305 66.4416 4.1017C66.109 3.39322 65.1113 2.27458 64.2243 1.60339L62.6722 0.372881H52.3247V1.67797ZM72.2806 21.6271V11V0.372881H85.2149L85.0302 2.79661L80.1151 2.87119C77.4543 2.94576 75.237 3.05763 75.237 3.16949V9.69491H82.2585V12.3051L75.0522 12.4915L75.237 19.0169L85.0302 19.2034L85.2149 21.6271H72.2806ZM1.03079 10.5153L1.14165 11.7458L6.50017 11.9322V21.6271H9.08704V11.9322L14.4456 11.7458L14.6303 9.32203H0.919922L1.03079 10.5153ZM21.0981 4.8474C21.3937 4.2135 22.0958 3.46774 22.6871 3.16944H22.6502C23.2415 2.87113 24.2393 2.6474 24.8675 2.61011C25.5327 2.61011 26.5305 2.83384 27.0479 3.05757C27.5652 3.31859 28.2674 3.95249 28.6 4.47452C29.0434 5.14571 29.2282 6.52537 29.3391 9.32198C29.413 11.4847 29.376 14.0576 29.2652 15.1016C29.1173 16.1457 28.6739 17.4135 28.1935 18.0474C27.5652 18.8677 27.0109 19.1288 25.5327 19.2779C24.0914 19.4643 23.4262 19.3152 22.6132 18.7932C22.0219 18.383 21.3198 17.6372 21.0611 17.0779C20.6915 16.3321 20.5437 14.505 20.5437 10.9999C20.5437 7.27113 20.6915 5.66774 21.0981 4.8474ZM107.499 5.25757C107.758 4.58638 108.46 3.69147 109.089 3.31859C109.717 2.94571 110.899 2.61011 111.749 2.61011C112.969 2.61011 113.597 2.87113 115.741 4.77283L115.925 16.7796L114.595 18.1593C113.301 19.5389 113.154 19.5762 111.269 19.3898C110.012 19.2779 109.052 18.9423 108.534 18.4576C108.128 18.0474 107.61 17.0406 107.426 16.2203C107.241 15.3999 107.056 12.8643 107.056 10.6271C107.056 8.20333 107.241 6.00333 107.499 5.25757ZM57.5359 10.9999V19.0169C60.6772 19.0169 62.0445 18.7932 62.5988 18.4949C63.1901 18.2338 63.8553 17.5627 64.077 17.0033C64.4096 16.3694 64.5575 14.244 64.5575 10.9999C64.5575 7.75588 64.4096 5.63045 64.077 4.99655C63.8553 4.43723 63.1901 3.76605 62.5988 3.50503C62.0445 3.20672 60.6772 2.98299 59.5685 2.98299H57.5359V10.9999Z" fill="#555760"/>
</svg>
