<svg width="12" height="9" viewBox="0 0 12 9" fill="none" xmlns="http://www.w3.org/2000/svg">
<path d="M3.71077 6.97405L4.14052 7.44587L4.57191 6.97556L10.4022 0.619309C10.4253 0.594084 10.4389 0.587555 10.4413 0.586461L10.4415 0.586384C10.4431 0.585636 10.448 0.583333 10.4628 0.583333C10.4714 0.583333 10.4764 0.584162 10.4786 0.584637C10.4808 0.585092 10.4822 0.585605 10.4838 0.586331C10.4859 0.58729 10.4992 0.593608 10.5221 0.618594L10.5227 0.619309C10.56 0.659989 10.5756 0.696908 10.5756 0.75975C10.5756 0.822561 10.5601 0.858847 10.5234 0.898727L10.5227 0.899442L4.1937 7.79944C4.16891 7.82647 4.15463 7.83328 4.15308 7.83401C4.15191 7.83455 4.15147 7.83465 4.15105 7.83475C4.15056 7.83485 4.14787 7.83542 4.14203 7.83542C4.13619 7.83542 4.1335 7.83485 4.13302 7.83475C4.13284 7.83471 4.13266 7.83467 4.13243 7.8346C4.13211 7.8345 4.13167 7.83433 4.13099 7.83401C4.12943 7.83328 4.11515 7.82647 4.09036 7.79944L1.13223 4.57444C1.09866 4.53784 1.08581 4.50723 1.08735 4.44954C1.08915 4.38195 1.10753 4.33969 1.14812 4.29574L1.14943 4.29431C1.17257 4.26908 1.18619 4.26256 1.18858 4.26146L1.18875 4.26138C1.19035 4.26063 1.1953 4.25833 1.21005 4.25833C1.21867 4.25833 1.22363 4.25916 1.22587 4.25964C1.22801 4.26009 1.22948 4.2606 1.23106 4.26133C1.23314 4.26229 1.24637 4.26856 1.26904 4.29329C1.26913 4.29339 1.26923 4.29349 1.26932 4.29359L3.71077 6.97405ZM11.159 0.75975C11.159 0.96625 11.0902 1.14425 10.9526 1.29375V0.225C11.0902 0.375 11.159 0.55325 11.159 0.75975Z" fill="white" stroke="white" stroke-width="1.16667"/>
</svg>
