<svg width="15" height="9" viewBox="0 0 12 9" fill="none" xmlns="http://www.w3.org/2000/svg">
    <path d="M3.55242 6.99228L3.9649 7.40766L4.37883 6.99373L10.7351 0.637479C10.779 0.593536 10.8102 0.583333 10.8573 0.583333C10.9044 0.583333 10.935 0.593463 10.9782 0.63679L10.9789 0.637479C11.0228 0.681422 11.033 0.712619 11.033 0.75975C11.033 0.806819 11.0229 0.837401 10.9796 0.880583L10.9789 0.881271L4.07887 7.78127C4.0309 7.82924 4.00152 7.83542 3.96635 7.83542C3.93117 7.83542 3.90179 7.82924 3.85382 7.78127L0.628825 4.55627C0.588936 4.51638 0.582237 4.49212 0.583433 4.45094C0.584963 4.39829 0.598613 4.36112 0.6462 4.31385L0.647575 4.31248C0.691518 4.26854 0.722716 4.25833 0.769846 4.25833C0.816789 4.25833 0.847334 4.26841 0.890338 4.31145C0.890451 4.31156 0.890565 4.31168 0.890679 4.31179L3.55242 6.99228ZM11.6163 0.75975C11.6163 0.96625 11.5413 1.14425 11.3913 1.29375L4.49135 8.19375C4.34135 8.34375 4.16635 8.41875 3.96635 8.41875C3.76635 8.41875 3.59135 8.34375 3.44135 8.19375L0.216346 4.96875C0.0663462 4.81875 -0.00565385 4.6405 0.000346154 4.434C0.00634615 4.2275 0.084596 4.0495 0.235096 3.9C0.385096 3.75 0.563346 3.675 0.769846 3.675C0.976346 3.675 1.15435 3.75 1.30385 3.9L3.55531 6.16732L3.55387 6.16877L3.96635 6.58125L4.38027 6.17022L4.37883 6.16877L10.3226 0.225C10.4726 0.0750001 10.6508 0 10.8573 0C11.0638 0 11.2418 0.0750001 11.3913 0.225C11.5413 0.375 11.6163 0.55325 11.6163 0.75975Z" fill="white" stroke="white" stroke-width="1.16667"/>
</svg>
