<svg width="28" height="28" viewBox="0 0 28 28" fill="none" xmlns="http://www.w3.org/2000/svg">
<path d="M19.7599 3.96096C20.0551 4.2562 20.2209 4.65658 20.2209 5.07405C20.2209 5.49152 20.0551 5.8919 19.7599 6.18714L11.9667 13.9803L19.7599 21.7735C20.0467 22.0705 20.2054 22.4682 20.2018 22.881C20.1982 23.2938 20.0327 23.6886 19.7408 23.9805C19.4489 24.2724 19.054 24.438 18.6412 24.4416C18.2284 24.4452 17.8307 24.2865 17.5338 23.9997L8.62746 15.0934C8.33231 14.7982 8.1665 14.3978 8.1665 13.9803C8.1665 13.5629 8.33231 13.1625 8.62746 12.8672L17.5338 3.96096C17.829 3.66581 18.2294 3.5 18.6468 3.5C19.0643 3.5 19.4647 3.66581 19.7599 3.96096Z" fill="#555760"/>
</svg>
