<svg width="24" height="24" viewBox="0 0 24 24" fill="none" xmlns="http://www.w3.org/2000/svg">
<g clip-path="url(#clip0_149_3793)">
<path d="M23.725 11.1489L23.7242 11.148L18.8256 6.273C18.4586 5.90779 17.865 5.90915 17.4997 6.27618C17.1345 6.64317 17.1359 7.23675 17.5028 7.602L20.7918 10.875H0.9375C0.419719 10.875 0 11.2947 0 11.8125C0 12.3303 0.419719 12.75 0.9375 12.75H20.7917L17.5029 16.023C17.1359 16.3882 17.1345 16.9818 17.4998 17.3488C17.865 17.7159 18.4587 17.7172 18.8256 17.352L23.7242 12.477L23.7251 12.4761C24.0923 12.1096 24.0911 11.5141 23.725 11.1489Z" fill="#555760"/>
</g>
<defs>
<clipPath id="clip0_149_3793">
<rect width="24" height="24" fill="white" transform="matrix(0 -1 -1 0 24 24)"/>
</clipPath>
</defs>
</svg>
