<svg width="80" height="174" viewBox="0 0 80 174" fill="none" xmlns="http://www.w3.org/2000/svg">
<ellipse cx="72.9007" cy="72.4655" rx="72.9007" ry="72.4655" transform="matrix(-1 0 0 1 79.1948 0.550781)" fill="url(#paint0_linear_1113_1108)"/>
<path fill-rule="evenodd" clip-rule="evenodd" d="M54.2424 126.144C27.827 152.402 -15.9244 151.522 -44.3034 123.313C-72.6825 95.103 -73.567 51.6128 -47.1516 25.3551C-43.0332 21.2613 -16.9968 40.5049 11.0024 68.337C39.0016 96.169 58.3608 122.05 54.2424 126.144ZM25.0385 140.989C2.1763 147.311 -24.0068 141.017 -43.0606 122.077C-62.1144 103.137 -68.4462 77.1104 -62.0862 54.3846C-65.771 75.5332 -58.003 99.8116 -39.3321 118.371C-20.6612 136.93 3.76289 144.652 25.0385 140.989ZM-38.0893 117.136C-18.5595 136.549 7.27561 143.743 28.8556 138.297C8.73761 141.045 -15.3338 132.343 -34.3608 113.429C-53.3879 94.5159 -62.1426 70.5882 -59.3775 50.5902C-64.8565 72.0415 -57.6191 97.7224 -38.0893 117.136ZM32.6166 135.74C12.4321 140.303 -13.0457 132.146 -33.118 112.194C-53.1903 92.2415 -61.3962 66.9158 -56.8057 46.8518C-57.3119 52.0327 -56.9314 57.5772 -55.7095 63.2872C-52.5052 78.2612 -43.5064 94.4551 -29.3895 108.488C-15.2726 122.52 1.01859 131.465 16.0825 134.651C21.8267 135.865 27.4045 136.243 32.6166 135.74ZM16.3394 132.879C23.4176 134.376 30.1704 134.555 36.2372 133.369C31.0792 133.616 25.4255 132.844 19.5298 131.139C5.38712 127.05 -10.3224 117.558 -24.4182 103.546C-38.514 89.5344 -48.0632 73.9187 -52.1772 59.8605C-53.8922 54 -54.6688 48.3799 -54.4199 43.2528C-55.6132 49.2834 -55.4328 55.9959 -53.9271 63.0318C-50.8115 77.5908 -42.029 93.4529 -28.1467 107.252C-14.2644 121.052 1.69299 129.782 16.3394 132.879ZM39.6081 131.198C33.8192 132.104 27.1211 131.483 19.9227 129.402C6.15422 125.42 -9.27202 116.131 -23.1754 102.311C-37.0787 88.4904 -46.4238 73.1562 -50.429 59.4699C-52.523 52.3144 -53.1479 45.6563 -52.2364 39.902C-52.1615 44.8752 -50.9089 50.4948 -48.6374 56.4392C-43.6177 69.5754 -33.5228 84.6126 -19.4469 98.6045C-5.37099 112.596 9.75652 122.631 22.9716 127.621C28.9517 129.879 34.605 131.124 39.6081 131.198ZM23.5113 125.932C30.8158 128.69 37.3799 129.818 42.7573 129.245C38.0512 128.789 32.4842 127.004 26.4093 124.093C14.1269 118.209 -0.418384 107.636 -14.4756 93.6629C-28.5328 79.6896 -39.1691 65.2311 -45.0887 53.0221C-48.0166 46.9834 -49.8128 41.4497 -50.2714 36.7716C-50.8481 42.117 -49.7129 48.6418 -46.9383 55.9027C-42.0395 68.7225 -32.1273 83.5289 -18.2041 97.3691C-4.28077 111.209 10.6146 121.062 23.5113 125.932ZM45.6623 127.535C44.806 127.568 43.8988 127.541 42.9421 127.454C38.51 127.049 33.1225 125.354 27.1042 122.471C15.0739 116.707 0.709238 106.286 -13.2327 92.4274C-27.1747 78.5687 -37.6583 64.2897 -43.4564 52.3313C-46.3571 46.3489 -48.0624 40.9936 -48.4696 36.5879C-48.5575 35.6369 -48.5847 34.7351 -48.5515 33.884C-48.484 34.2009 -48.4083 34.5223 -48.325 34.8478C-47.2759 38.943 -44.9327 43.9743 -41.5303 49.6074C-34.7181 60.8858 -23.5439 74.7653 -9.50426 88.7212C4.53542 102.677 18.4983 113.785 29.8444 120.556C35.5114 123.938 40.5729 126.267 44.6926 127.31C45.0201 127.393 45.3435 127.468 45.6623 127.535ZM45.0232 125.555C46.903 126.031 48.4784 126.197 49.7613 126.088C40.3149 122.738 18.8503 105.788 -3.91154 83.1619C-26.6733 60.5359 -43.7252 39.1994 -47.0954 29.8095C-47.2052 31.0847 -47.0384 32.6506 -46.5597 34.5193C-45.5769 38.356 -43.3405 43.2011 -39.9844 48.7574C-33.2796 59.858 -22.2209 73.6096 -8.26144 87.4858C5.69805 101.362 19.5323 112.355 30.6995 119.019C36.2892 122.355 41.1634 124.578 45.0232 125.555ZM-44.7877 26.6733C-45.5031 26.5569 -45.7585 26.6543 -45.8152 26.6834C-45.8445 26.7398 -45.9425 26.9937 -45.8254 27.7048C-45.6784 28.598 -45.2405 29.8611 -44.4392 31.507C-42.8463 34.7787 -40.0239 39.1507 -36.1399 44.3432C-28.3899 54.704 -16.6209 68.0576 -2.66871 81.9265C11.2835 95.7954 24.7172 107.494 35.1403 115.198C40.3639 119.059 44.7621 121.864 48.0536 123.448C49.7093 124.244 50.98 124.679 51.8785 124.826C52.5939 124.942 52.8494 124.844 52.9061 124.815C52.9353 124.759 53.0333 124.505 52.9163 123.794C52.7693 122.901 52.3313 121.638 51.53 119.992C49.9372 116.72 47.1148 112.348 43.2308 107.156C35.4807 96.7948 23.7117 83.4413 9.75956 69.5724C-4.1926 55.7035 -17.6263 44.0047 -28.0494 36.301C-33.273 32.4402 -37.6713 29.6346 -40.9627 28.0512C-42.6185 27.2547 -43.8891 26.8194 -44.7877 26.6733Z" fill="url(#paint1_linear_1113_1108)"/>
<defs>
<linearGradient id="paint0_linear_1113_1108" x1="48.6005" y1="36.2328" x2="142.102" y2="148.502" gradientUnits="userSpaceOnUse">
<stop stop-color="#FAFBFF"/>
<stop offset="1" stop-color="#D3D8FF"/>
</linearGradient>
<linearGradient id="paint1_linear_1113_1108" x1="-50.2493" y1="123.039" x2="13.4444" y2="65.5588" gradientUnits="userSpaceOnUse">
<stop stop-color="white"/>
<stop offset="1" stop-color="white" stop-opacity="0"/>
</linearGradient>
</defs>
</svg>
