<svg width="24" height="25" viewBox="0 0 24 25" fill="none" xmlns="http://www.w3.org/2000/svg">
<g clip-path="url(#clip0_1113_1154)">
<path d="M12 2.5C17.523 2.5 22 6.977 22 12.5C22 18.023 17.523 22.5 12 22.5C6.477 22.5 2 18.023 2 12.5C2 6.977 6.477 2.5 12 2.5ZM12 6.5C11.7348 6.5 11.4804 6.60536 11.2929 6.79289C11.1054 6.98043 11 7.23478 11 7.5V12.5C11.0001 12.7652 11.1054 13.0195 11.293 13.207L14.293 16.207C14.4816 16.3892 14.7342 16.4899 14.9964 16.4877C15.2586 16.4854 15.5094 16.3802 15.6948 16.1948C15.8802 16.0094 15.9854 15.7586 15.9877 15.4964C15.9899 15.2342 15.8892 14.9816 15.707 14.793L13 12.086V7.5C13 7.23478 12.8946 6.98043 12.7071 6.79289C12.5196 6.60536 12.2652 6.5 12 6.5Z" fill="#555760"/>
</g>
<defs>
<clipPath id="clip0_1113_1154">
<rect width="24" height="24" fill="white" transform="translate(0 0.5)"/>
</clipPath>
</defs>
</svg>
