<svg width="20" height="21" viewBox="0 0 20 21" fill="none" xmlns="http://www.w3.org/2000/svg">
<path d="M16.6667 7.16683L10.0001 11.3335L3.33341 7.16683V5.50016L10.0001 9.66683L16.6667 5.50016M16.6667 3.8335H3.33341C2.40841 3.8335 1.66675 4.57516 1.66675 5.50016V15.5002C1.66675 15.9422 1.84234 16.3661 2.1549 16.6787C2.46746 16.9912 2.89139 17.1668 3.33341 17.1668H16.6667C17.1088 17.1668 17.5327 16.9912 17.8453 16.6787C18.1578 16.3661 18.3334 15.9422 18.3334 15.5002V5.50016C18.3334 5.05814 18.1578 4.63421 17.8453 4.32165C17.5327 4.00909 17.1088 3.8335 16.6667 3.8335Z" fill="#555760"/>
</svg>
