<svg width="20" height="21" viewBox="0 0 20 21" fill="none" xmlns="http://www.w3.org/2000/svg">
<path d="M19.7388 15.6636C19.5716 16.9339 18.9477 18.1 17.9837 18.9439C17.0196 19.7879 15.7813 20.2521 14.5 20.2498C7.05626 20.2498 1.00001 14.1936 1.00001 6.74981C0.997712 5.46852 1.4619 4.23021 2.30588 3.26615C3.14986 2.30209 4.31592 1.67822 5.58626 1.51106C5.9075 1.47184 6.2328 1.53756 6.51362 1.69841C6.79444 1.85926 7.0157 2.10662 7.14438 2.40356L9.12438 6.82387V6.83512C9.2229 7.06242 9.26359 7.31059 9.24282 7.55744C9.22204 7.8043 9.14044 8.04217 9.00532 8.24981C8.98845 8.27512 8.97063 8.29856 8.95188 8.322L7.00001 10.6357C7.7022 12.0626 9.1947 13.542 10.6403 14.2461L12.9222 12.3045C12.9446 12.2857 12.9681 12.2681 12.9925 12.252C13.2 12.1136 13.4387 12.0292 13.687 12.0062C13.9353 11.9833 14.1854 12.0227 14.4147 12.1207L14.4269 12.1264L18.8434 14.1054C19.1409 14.2337 19.3889 14.4547 19.5503 14.7356C19.7116 15.0164 19.7778 15.342 19.7388 15.6636Z" fill="#555760"/>
</svg>
