<svg width="20" height="20" viewBox="0 0 20 20" fill="none" xmlns="http://www.w3.org/2000/svg">
<g clip-path="url(#clip0_934_52787)">
<path fill-rule="evenodd" clip-rule="evenodd" d="M15.6065 3.68594C15.8004 3.60431 16.0127 3.57616 16.2212 3.60441C16.4297 3.63266 16.6268 3.71628 16.792 3.84657C16.9573 3.97686 17.0846 4.14906 17.1606 4.34523C17.2367 4.54141 17.2589 4.7544 17.2247 4.96202L15.4448 15.7585C15.2721 16.7999 14.1295 17.3972 13.1744 16.8784C12.3754 16.4444 11.1888 15.7758 10.1215 15.0781C9.58782 14.7289 7.95308 13.6105 8.15399 12.8147C8.32665 12.1343 11.0734 9.57743 12.643 8.05727C13.2591 7.46004 12.9782 7.11551 12.2506 7.66487C10.4433 9.02886 7.54342 11.1031 6.58439 11.687C5.73838 12.2018 5.29732 12.2897 4.76993 12.2018C3.80777 12.0417 2.91545 11.7937 2.18716 11.4916C1.20302 11.0835 1.25089 9.73047 2.18637 9.3365L15.6065 3.68594Z" fill="#555760"/>
</g>
<defs>
<clipPath id="clip0_934_52787">
<rect width="20" height="20" fill="white"/>
</clipPath>
</defs>
</svg>
